<?xml version="1.0" ?>

<!-- Uploaded to: SVG Repo, www.svgrepo.com, Generator: SVG Repo Mixer Tools -->
<svg width="800px" height="800px" viewBox="0 0 512 512" version="1.1" xml:space="preserve"
	xmlns="http://www.w3.org/2000/svg" xmlns:xlink="http://www.w3.org/1999/xlink">

	<style type="text/css">
		.st0 {
			display: none;
		}

		.st1 {
			fill: #FFE2D2;
		}

		.st2 {
			fill: #FFDE83;
		}

		.st3 {
			fill: #F57070;
		}

		.st4 {
			fill: #DBDBEF;
		}

		.st5 {
			fill: #BCE2FF;
		}

		.st6 {
			fill: #143762;
		}

		.st7 {
			fill: #6E78FF;
		}

		.st8 {
			fill: #FFBE83;
		}

		.st9 {
			fill: #F5949E;
		}

		.st10 {
			fill: #D0FF67;
		}

		.st11 {
			fill: #C69C6D;
		}

		.st12 {
			fill: #C5BDD3;
		}

		.st13 {
			fill: #FFE2D2;
		}

		.st14 {
			fill: #F54670;
		}
	</style>

	<g class="st0" id="Layer_1" />

	<g id="Layer_2">

		<g>

			<path class="st13"
				d="M335.83,179.01c-0.87-0.11-1.74-0.21-2.6-0.29c-0.25-0.03-0.49-0.04-0.74-0.07    c-0.66-0.05-1.32-0.11-1.98-0.15c-0.33-0.03-0.67-0.04-1-0.06c-0.58-0.04-1.17-0.06-1.75-0.08c-0.33-0.02-0.67-0.03-1-0.04    c-0.63-0.01-1.26-0.02-1.89-0.02c-0.27,0-0.53-0.01-0.79,0c-0.88,0-1.75,0.02-2.62,0.05c-0.21,0.01-0.42,0.03-0.63,0.04    c-0.67,0.03-1.35,0.06-2.01,0.11c-0.31,0.02-0.62,0.05-0.92,0.07c-0.59,0.05-1.17,0.1-1.75,0.16c-0.31,0.04-0.62,0.07-0.92,0.1    c-0.63,0.08-1.25,0.16-1.87,0.24c-0.24,0.04-0.49,0.07-0.73,0.1c-0.86,0.13-1.72,0.27-2.58,0.43c-0.08,0.02-0.17,0.04-0.26,0.05    c-0.76,0.14-1.53,0.3-2.29,0.47c-0.26,0.05-0.52,0.11-0.77,0.17c-0.6,0.14-1.19,0.28-1.78,0.43c-0.28,0.07-0.57,0.15-0.85,0.22    c-0.59,0.16-1.18,0.33-1.77,0.5c-0.25,0.07-0.5,0.14-0.75,0.22c-0.82,0.24-1.63,0.5-2.44,0.78c-0.01,0-0.02,0-0.03,0.01    l-27.12-37.6c-1.28-1.76-1.08-4.15,0.45-5.69c0.86-0.85,1.99-1.29,3.12-1.29c0.87,0,1.75,0.26,2.51,0.79l54.16,37.83    C333.43,177.33,334.63,178.17,335.83,179.01z" />

			<path class="st13"
				d="M240.01,144.85l-27.12,37.6c-0.96-0.33-1.93-0.63-2.9-0.92c-0.3-0.09-0.6-0.17-0.9-0.25    c-0.67-0.2-1.35-0.38-2.03-0.56c-0.37-0.09-0.74-0.18-1.1-0.26c-0.62-0.15-1.25-0.3-1.87-0.43c-0.39-0.08-0.79-0.16-1.18-0.24    c-0.61-0.12-1.23-0.23-1.85-0.34c-0.39-0.06-0.78-0.13-1.18-0.19c-0.64-0.1-1.28-0.19-1.93-0.28c-0.37-0.04-0.74-0.1-1.11-0.14    c-0.72-0.08-1.44-0.15-2.16-0.21c-0.3-0.03-0.6-0.06-0.91-0.09c-2.06-0.16-4.15-0.24-6.25-0.24c-0.06-0.01-0.11-0.01-0.16-0.01    c-0.45,0-0.9,0.02-1.35,0.02c-0.44,0.01-0.88,0.01-1.32,0.02c-0.56,0.02-1.13,0.05-1.69,0.08c-0.39,0.02-0.78,0.03-1.17,0.06    c-0.95,0.06-1.9,0.14-2.85,0.23c-0.3,0.02-0.6,0.06-0.9,0.09c-0.63,0.07-1.27,0.14-1.91,0.22c0.96-0.68,1.93-1.35,2.9-2.02    c0.23-0.17,0.47-0.33,0.7-0.5l54.16-37.83c1.75-1.22,4.11-1.01,5.63,0.5C241.09,140.7,241.29,143.09,240.01,144.85z" />

			<path class="st13"
				d="M395.65,203.69c-0.03-0.02-0.05-0.03-0.08-0.05c-0.01-0.01-0.03-0.02-0.04-0.03    c-0.14-0.1-0.28-0.2-0.42-0.29c-0.15-0.11-0.32-0.22-0.5-0.34l-0.05-0.03c-0.64-0.46-1.49-1.05-2.53-1.77    c-0.27-0.2-0.56-0.4-0.87-0.61c-0.85-0.6-1.81-1.27-2.87-2.01l-16.28-11.37c-1.11-0.77-2.26-1.57-3.42-2.39    c-7.82-5.46-16.69-11.65-25.75-17.97l-3.13-28.32c-0.13-1.22,0.35-2.43,1.3-3.22l2.79-2.33c1.1-0.91,2.28-0.9,2.89-0.81    c0.6,0.09,1.74,0.41,2.53,1.6l27.7,41.73c0,0,0,0,0,0.01L395.65,203.69z" />

			<path class="st13"
				d="M122.11,169.7l-41.57,62.63l-0.99,1.49l-0.09,0.13c-0.24,0.22-0.46,0.45-0.69,0.68l13.45-42.92    c0.15,0.07,0.3,0.13,0.46,0.19c0.1,0.04,0.2,0.07,0.31,0.1c0.06,0.02,0.11,0.03,0.17,0.04c3.66,0.99,7.45-1.11,8.53-4.76    l11.88-39.96c0.51-1.74,2.25-2.85,4.05-2.59c1.71,0.24,3.03,1.68,3.14,3.4L122.11,169.7z" />

			<path class="st1"
				d="M165.9,226.25c-10.84,10.54-16.93,24.67-17.13,39.78c-0.42,29.49,18.4,62.37,56.02,97.81    c0.15,0.13,0.3,0.26,0.48,0.41c0.48,0.44,0.99,0.87,1.49,1.29l0.32,0.27c0.73,0.62,1.56,1.32,2.46,1.99    c0.7,0.53,1.42,1.02,2.15,1.52c0.81,0.55,1.68,1.13,2.55,1.65c0.72,0.44,1.46,0.85,2.19,1.25c1.03,0.57,1.95,1.04,2.88,1.48    c0.67,0.32,1.35,0.62,2.1,0.95c0.98,0.41,2.02,0.81,3.09,1.19c0.68,0.25,1.35,0.49,2.07,0.71c1.22,0.39,2.41,0.69,3.47,0.96    l0.49,0.12c0.47,0.12,0.94,0.24,1.32,0.31c0.94,0.2,1.85,0.35,2.71,0.48c-14.54,2.87-41.96,4.86-94.48-25.43    c-2.94-1.7-6.59-1.02-8.75,1.44c-0.11,0.12-0.22,0.25-0.32,0.38c-0.1,0.13-0.19,0.28-0.28,0.42l-12.76-8.95    c0.07-0.15,0.14-0.3,0.2-0.46c0.06-0.16,0.11-0.33,0.16-0.5c0.42-1.44,0.38-3.03-0.22-4.53c-1.44-3.59-5.52-5.33-9.11-3.89    l-33.22,13.33l-24.89-83.28l24.62-9.56c1.07-0.42,2.03-1.1,2.78-1.97c0.01-0.02,1.26-1.47,3.55-3.91    c2.45-2.62,5.11-5.33,7.92-8.06c0.06-0.06,0.13-0.12,0.19-0.19c0.16-0.16,0.34-0.32,0.51-0.49c0.3-0.29,0.6-0.58,0.92-0.89    c0.24-0.22,0.49-0.46,0.73-0.69c0.28-0.27,0.56-0.54,0.86-0.81c0.29-0.28,0.6-0.56,0.9-0.84c0.26-0.25,0.52-0.49,0.78-0.74    c0.34-0.31,0.69-0.63,1.04-0.94c0.25-0.24,0.5-0.46,0.76-0.7c0.37-0.34,0.76-0.69,1.15-1.03c0.24-0.22,0.48-0.44,0.73-0.66    c0.4-0.36,0.82-0.73,1.24-1.09c0.25-0.22,0.49-0.44,0.74-0.66c0.44-0.38,0.89-0.77,1.34-1.16c0.24-0.21,0.47-0.41,0.72-0.62    c0.47-0.4,0.95-0.81,1.43-1.21c0.24-0.2,0.47-0.41,0.72-0.61c0.48-0.41,0.98-0.82,1.48-1.23c0.25-0.2,0.5-0.41,0.75-0.62    c0.52-0.42,1.04-0.84,1.57-1.27c0.25-0.19,0.49-0.39,0.74-0.59c0.52-0.42,1.05-0.83,1.58-1.25c0.27-0.21,0.53-0.42,0.81-0.64    c0.53-0.42,1.09-0.84,1.63-1.26c0.28-0.2,0.54-0.41,0.82-0.62c0.55-0.42,1.12-0.84,1.69-1.26c0.28-0.21,0.55-0.42,0.83-0.63    c0.59-0.43,1.18-0.85,1.78-1.28c0.27-0.2,0.53-0.4,0.81-0.59c0.62-0.45,1.25-0.88,1.88-1.32c0.26-0.18,0.51-0.37,0.77-0.55    c0.89-0.61,1.79-1.23,2.7-1.84c0.07-0.04,0.2-0.14,0.27-0.18l0.18-0.12c0.08-0.06,0.15-0.11,0.23-0.16s0.14-0.1,0.21-0.14    c0.03-0.03,0.06-0.05,0.09-0.07c1.85-1.22,3.84-2.48,5.92-3.74c0-0.01,0-0.01,0-0.01c7.7-4.69,15.24-8.5,22.58-11.41    c7.33-2.92,14.46-4.94,21.32-6.05c2.52-0.4,5.01-0.68,7.48-0.84c1.64-0.11,3.27-0.16,4.88-0.15h0.05    c8.86,0.03,17.27,1.72,25.12,5.05c5.72,2.43,11.23,5.77,16.51,9.99c5.28,4.22,10.31,9.32,15.07,15.28    c-0.15,0.62-0.44,1.43-0.84,2.36c-10.13-9.27-23.27-14.54-37.28-14.74C191.06,210.02,176.74,215.71,165.9,226.25z" />

			<path class="st13"
				d="M172.29,138.51l-3.13,28.32c-0.16,0.11-0.32,0.22-0.47,0.33c-8.89,6.2-17.59,12.28-25.28,17.64    c-1.16,0.82-2.31,1.62-3.42,2.39l-16.3,11.38c-1.42,1-2.67,1.87-3.72,2.61c-1.04,0.72-1.89,1.32-2.54,1.77l-0.04,0.03    c-0.18,0.12-0.34,0.23-0.5,0.34c-0.14,0.09-0.28,0.19-0.42,0.29c-0.01,0.01-0.03,0.02-0.04,0.03c-0.03,0.02-0.05,0.03-0.08,0.05    l18.73-28.2c0-0.01,0-0.01,0-0.02l27.7-41.72c0.79-1.19,1.93-1.51,2.53-1.6c0.15-0.02,0.33-0.04,0.54-0.04    c0.64,0,1.52,0.16,2.35,0.85l2.79,2.33C171.94,136.08,172.42,137.29,172.29,138.51z" />

			<path class="st1"
				d="M461.11,266.95l-24.89,83.28L403,336.9c-2.16-0.87-4.6-0.61-6.52,0.69    c-68.57,46.17-102.62,44.03-119.03,40.83c0.84-0.12,1.73-0.27,2.61-0.46c0.47-0.09,0.94-0.21,1.41-0.33l0.56-0.14    c0.99-0.25,2.18-0.55,3.43-0.94c0.69-0.22,1.36-0.46,2.04-0.71c1.07-0.38,2.11-0.78,3.17-1.22c0.67-0.3,1.35-0.6,2.07-0.94    c0.88-0.42,1.8-0.89,2.82-1.45c0.74-0.41,1.48-0.82,2.13-1.22c0.94-0.56,1.81-1.14,2.63-1.69c0.72-0.5,1.44-0.99,2.14-1.52    c0.9-0.67,1.73-1.37,2.44-1.98l0.34-0.28c0.51-0.43,1.02-0.86,1.49-1.29c0.17-0.14,0.33-0.28,0.55-0.47    c7.28-6.86,13.94-13.71,19.79-20.36c2.34-2.65,2.3-6.56,0.06-9.16c-0.1-0.12-0.21-0.25-0.33-0.37c-0.11-0.13-0.23-0.24-0.35-0.35    v-0.01c2.16-2.14,4.38-4.75,6.61-7.74c0.15,0.09,0.28,0.19,0.43,0.27c0.15,0.08,0.31,0.14,0.47,0.21    c0.87,0.38,1.81,0.59,2.77,0.59c0.45,0,0.92-0.05,1.37-0.14c0.44-0.09,0.88-0.22,1.31-0.4c0.42-0.17,0.83-0.39,1.21-0.64    c0.38-0.26,0.74-0.55,1.06-0.87c0.32-0.33,0.61-0.68,0.87-1.07c0.25-0.38,0.47-0.78,0.64-1.2c0.18-0.43,0.31-0.87,0.4-1.31    c0.09-0.46,0.14-0.92,0.14-1.37c0-0.46-0.05-0.92-0.14-1.37c-0.09-0.45-0.22-0.89-0.4-1.31c-0.17-0.42-0.39-0.83-0.64-1.21    c-0.26-0.38-0.55-0.74-0.87-1.06c-0.06-0.06-0.14-0.12-0.21-0.18c-0.12-0.12-0.24-0.24-0.38-0.34c-0.13-0.11-0.27-0.21-0.4-0.3    c2.22-3.84,4.43-8.05,6.59-12.52c0.12,0.06,0.25,0.13,0.38,0.18c0.02,0.01,0.05,0.02,0.07,0.03c0.16,0.06,0.32,0.11,0.48,0.16    c3.44,1.08,7.19-0.65,8.57-4.05c4.43-10.96,6.6-21.67,6.45-31.85c-0.2-15.12-6.29-29.25-17.13-39.79    c-10.84-10.54-25.14-16.2-40.25-16.01c-14.01,0.2-27.15,5.47-37.28,14.74c-0.4-0.93-0.69-1.74-0.84-2.36    c9.52-11.92,20.14-20.42,31.58-25.27c11.44-4.86,24.07-6.22,37.53-4.06c13.73,2.21,28.5,8.09,43.9,17.47    c2.07,1.25,4.05,2.51,5.9,3.73c0.12,0.08,0.24,0.17,0.33,0.22c0.07,0.05,0.15,0.11,0.22,0.16l0.18,0.11    c0.09,0.07,0.17,0.13,0.27,0.19c0.9,0.61,1.8,1.22,2.69,1.84c0.46,0.31,0.91,0.63,1.36,0.95c0.43,0.3,0.87,0.61,1.29,0.91    c0.5,0.36,0.99,0.72,1.49,1.08c0.36,0.26,0.73,0.53,1.09,0.79c0.51,0.38,1.02,0.76,1.52,1.14c0.33,0.25,0.67,0.49,1,0.74    c0.51,0.39,1,0.77,1.5,1.16c0.32,0.24,0.63,0.48,0.94,0.72c0.5,0.39,0.99,0.78,1.48,1.17c0.3,0.23,0.61,0.47,0.9,0.71    c0.5,0.39,0.98,0.78,1.46,1.17c0.28,0.23,0.57,0.46,0.85,0.69c0.48,0.39,0.94,0.78,1.41,1.17c0.27,0.22,0.55,0.45,0.81,0.67    c0.46,0.39,0.91,0.77,1.36,1.15c0.26,0.22,0.53,0.45,0.79,0.67c0.45,0.38,0.88,0.75,1.31,1.13c0.25,0.22,0.51,0.44,0.75,0.65    c0.43,0.37,0.85,0.74,1.26,1.11c0.24,0.21,0.49,0.43,0.72,0.64c0.41,0.36,0.8,0.71,1.19,1.07c0.24,0.21,0.47,0.42,0.7,0.62    c0.38,0.35,0.75,0.69,1.12,1.03c0.23,0.21,0.46,0.42,0.68,0.62c0.36,0.33,0.71,0.66,1.06,0.99c0.21,0.19,0.43,0.4,0.63,0.59    c0.35,0.32,0.67,0.64,1,0.95c0.2,0.19,0.41,0.38,0.61,0.57c0.31,0.3,0.6,0.58,0.9,0.87c0.18,0.18,0.36,0.35,0.54,0.52    c0.06,0.07,0.12,0.13,0.19,0.19c0.7,0.69,1.39,1.37,2.08,2.05c2.05,2.03,4,4.05,5.84,6.01c0,0.01,0.01,0.01,0.01,0.01    c1.14,1.22,2.02,2.18,2.62,2.85c0.6,0.67,0.91,1.04,0.92,1.05c0.75,0.87,1.7,1.55,2.78,1.97L461.11,266.95z" />

			<path class="st13"
				d="M428.03,227.15l-0.83-1.25l-0.84-1.27l-36.47-54.93l1.35-21.57c0.11-1.72,1.43-3.16,3.14-3.4    c1.8-0.27,3.54,0.85,4.05,2.59l10.83,36.44c1.03,3.46,4.51,5.52,7.99,4.87c0.16-0.03,0.32-0.06,0.48-0.1    c0.08-0.02,0.15-0.04,0.23-0.06c0.09-0.03,0.17-0.06,0.25-0.09L428.03,227.15z" />

			<path class="st6"
				d="M343.73,319.86c0,0.45-0.05,0.91-0.14,1.37c-0.09,0.44-0.22,0.88-0.4,1.31c-0.17,0.42-0.39,0.82-0.64,1.2    c-0.26,0.39-0.55,0.74-0.87,1.07c-0.32,0.32-0.68,0.61-1.06,0.87c-0.38,0.25-0.79,0.47-1.21,0.64c-0.43,0.18-0.87,0.31-1.31,0.4    c-0.45,0.09-0.92,0.14-1.37,0.14c-0.96,0-1.9-0.21-2.77-0.59c-0.16-0.07-0.32-0.13-0.47-0.21c-0.15-0.08-0.28-0.18-0.43-0.27    c-0.46-0.28-0.9-0.6-1.28-0.98c-0.32-0.33-0.62-0.68-0.87-1.07c-0.25-0.38-0.47-0.78-0.65-1.2c-0.17-0.43-0.3-0.87-0.39-1.31    c-0.09-0.46-0.14-0.92-0.14-1.37c0-0.46,0.05-0.92,0.14-1.37s0.22-0.89,0.39-1.31c0.18-0.42,0.4-0.83,0.65-1.21    s0.55-0.74,0.87-1.06c1.63-1.63,4.04-2.37,6.32-1.92c0.44,0.09,0.88,0.23,1.31,0.4c0.42,0.18,0.83,0.4,1.21,0.65    c0.02,0.02,0.04,0.03,0.07,0.05c0.13,0.09,0.27,0.19,0.4,0.3c0.14,0.1,0.26,0.22,0.38,0.34c0.07,0.06,0.15,0.12,0.21,0.18    c0.32,0.32,0.61,0.68,0.87,1.06c0.25,0.38,0.47,0.79,0.64,1.21c0.18,0.42,0.31,0.86,0.4,1.31    C343.68,318.94,343.73,319.4,343.73,319.86z" />

			<path class="st6"
				d="M472.2,256.24l-29.05-11.28c-0.66-0.74-1.59-1.76-2.76-3.01c-0.62-0.67-1.26-1.34-1.91-2.02    c-0.18-0.18-0.36-0.36-0.53-0.55c-0.48-0.49-0.97-0.99-1.46-1.49c-0.23-0.24-0.46-0.47-0.69-0.71c-0.45-0.45-0.9-0.9-1.35-1.35    c-0.27-0.27-0.54-0.53-0.81-0.8c-0.36-0.36-0.73-0.72-1.1-1.08l-4.51-6.8l-0.83-1.25l-0.84-1.27l-36.47-54.93l1.35-21.57    c0.11-1.72,1.43-3.16,3.14-3.4c1.8-0.27,3.54,0.85,4.05,2.59l10.83,36.44c1.03,3.46,4.51,5.52,7.99,4.87    c0.16-0.03,0.32-0.06,0.48-0.1c0.08-0.02,0.15-0.04,0.23-0.06c0.09-0.03,0.17-0.06,0.25-0.09c3.55-1.2,5.54-5,4.47-8.61    l-10.83-36.44c-2.48-8.34-10.85-13.71-19.46-12.46c-8.24,1.18-14.6,8.08-15.12,16.39l-0.2,3.13l-16.19-24.38    c-2.77-4.18-7.21-6.99-12.17-7.71c-4.96-0.73-10.02,0.7-13.87,3.91l-2.79,2.32c-4.57,3.81-6.91,9.61-6.25,15.52l1.78,16.12    l-41.49-28.99c-7.32-5.11-17.22-4.24-23.54,2.08c-6.43,6.42-7.23,16.42-1.92,23.78l25.43,35.25    c-10.91,6.11-20.99,15.03-30.06,26.6c-9.06-11.57-19.14-20.49-30.06-26.6l25.43-35.25c5.31-7.36,4.51-17.36-1.92-23.78    c-6.32-6.32-16.22-7.19-23.54-2.08l-41.49,28.99l1.78-16.12c0.66-5.91-1.68-11.71-6.25-15.52l-2.79-2.32    c-3.85-3.21-8.91-4.64-13.87-3.91c-4.96,0.72-9.4,3.53-12.17,7.71l-16.19,24.38l-0.2-3.13c-0.52-8.31-6.88-15.21-15.12-16.39    c-8.61-1.24-16.98,4.11-19.46,12.46l-11.88,39.96c-1.02,3.44,0.72,7.04,3.95,8.42c0.15,0.07,0.3,0.13,0.46,0.19    c0.1,0.04,0.2,0.07,0.31,0.1c0.06,0.02,0.11,0.03,0.17,0.04c3.66,0.99,7.45-1.11,8.53-4.76l11.88-39.96    c0.51-1.74,2.25-2.85,4.05-2.59c1.71,0.24,3.03,1.68,3.14,3.4l1.35,21.57l-41.57,62.63l-0.99,1.49l-0.09,0.13    c-0.24,0.22-0.46,0.45-0.69,0.68c-0.1,0.09-0.2,0.19-0.3,0.29c-0.32,0.31-0.63,0.62-0.94,0.93c-0.39,0.39-0.78,0.78-1.17,1.18    c-0.29,0.29-0.58,0.58-0.86,0.87c-0.49,0.49-0.97,0.99-1.44,1.48c-0.17,0.18-0.35,0.36-0.53,0.54c-0.65,0.68-1.29,1.36-1.92,2.03    c0,0.01-0.01,0.01-0.01,0.01c-1.17,1.25-2.09,2.26-2.75,3L39.8,256.24c-3.4,1.32-5.21,5.03-4.17,8.53l28.93,96.82    c0.57,1.88,1.9,3.44,3.67,4.3c1.77,0.85,3.82,0.92,5.65,0.19l40.34-16.19c1.74-0.7,3.03-2.02,3.75-3.61    c0.07-0.15,0.14-0.3,0.2-0.46c0.06-0.16,0.11-0.33,0.16-0.5c0.42-1.44,0.38-3.03-0.22-4.53c-1.44-3.59-5.52-5.33-9.11-3.89    l-33.22,13.33l-24.89-83.28l24.62-9.56c1.07-0.42,2.03-1.1,2.78-1.97c0.01-0.02,1.26-1.47,3.55-3.91    c2.45-2.62,5.11-5.33,7.92-8.06c0.06-0.06,0.13-0.12,0.19-0.19c0.16-0.16,0.34-0.32,0.51-0.49c0.3-0.29,0.6-0.58,0.92-0.89    c0.24-0.22,0.49-0.46,0.73-0.69c0.28-0.27,0.56-0.54,0.86-0.81c0.29-0.28,0.6-0.56,0.9-0.84c0.26-0.25,0.52-0.49,0.78-0.74    c0.34-0.31,0.69-0.63,1.04-0.94c0.25-0.24,0.5-0.46,0.76-0.7c0.37-0.34,0.76-0.69,1.15-1.03c0.24-0.22,0.48-0.44,0.73-0.66    c0.4-0.36,0.82-0.73,1.24-1.09c0.25-0.22,0.49-0.44,0.74-0.66c0.44-0.38,0.89-0.77,1.34-1.16c0.24-0.21,0.47-0.41,0.72-0.62    c0.47-0.4,0.95-0.81,1.43-1.21c0.24-0.2,0.47-0.41,0.72-0.61c0.48-0.41,0.98-0.82,1.48-1.23c0.25-0.2,0.5-0.41,0.75-0.62    c0.52-0.42,1.04-0.84,1.57-1.27c0.25-0.19,0.49-0.39,0.74-0.59c0.52-0.42,1.05-0.83,1.58-1.25c0.27-0.21,0.53-0.42,0.81-0.64    c0.53-0.42,1.09-0.84,1.63-1.26c0.28-0.2,0.54-0.41,0.82-0.62c0.55-0.42,1.12-0.84,1.69-1.26c0.28-0.21,0.55-0.42,0.83-0.63    c0.59-0.43,1.18-0.85,1.78-1.28c0.27-0.2,0.53-0.4,0.81-0.59c0.62-0.45,1.25-0.88,1.88-1.32c0.26-0.18,0.51-0.37,0.77-0.55    c0.89-0.61,1.79-1.23,2.7-1.84c0.07-0.04,0.2-0.14,0.27-0.18l0.18-0.12c0.08-0.06,0.15-0.11,0.23-0.16s0.14-0.1,0.21-0.14    c0.03-0.03,0.06-0.05,0.09-0.07c1.85-1.22,3.84-2.48,5.92-3.74c0-0.01,0-0.01,0-0.01c7.7-4.69,15.24-8.5,22.58-11.41    c7.33-2.92,14.46-4.94,21.32-6.05c2.52-0.4,5.01-0.68,7.48-0.84c1.64-0.11,3.27-0.16,4.88-0.15h0.05    c8.86,0.03,17.27,1.72,25.12,5.05c5.72,2.43,11.23,5.77,16.51,9.99c5.28,4.22,10.31,9.32,15.07,15.28    c-0.15,0.62-0.44,1.43-0.84,2.36c-10.13-9.27-23.27-14.54-37.28-14.74c-15.09-0.22-29.41,5.47-40.25,16.01    c-10.84,10.54-16.93,24.67-17.13,39.78c-0.42,29.49,18.4,62.37,56.02,97.81c0.15,0.13,0.3,0.26,0.48,0.41    c0.48,0.44,0.99,0.87,1.49,1.29l0.32,0.27c0.73,0.62,1.56,1.32,2.46,1.99c0.7,0.53,1.42,1.02,2.15,1.52    c0.81,0.55,1.68,1.13,2.55,1.65c0.72,0.44,1.46,0.85,2.19,1.25c1.03,0.57,1.95,1.04,2.88,1.48c0.67,0.32,1.35,0.62,2.1,0.95    c0.98,0.41,2.02,0.81,3.09,1.19c0.68,0.25,1.35,0.49,2.07,0.71c1.22,0.39,2.41,0.69,3.47,0.96l0.49,0.12    c0.47,0.12,0.94,0.24,1.32,0.31c0.94,0.2,1.85,0.35,2.71,0.48c-14.54,2.87-41.96,4.86-94.48-25.43c-2.94-1.7-6.59-1.02-8.75,1.44    c-0.11,0.12-0.22,0.25-0.32,0.38c-0.1,0.13-0.19,0.28-0.28,0.42c-0.07,0.11-0.15,0.21-0.21,0.32c-1.93,3.35-0.78,7.63,2.57,9.56    c26.54,15.31,50.5,24.61,71.21,27.64c5.6,0.82,10.65,1.13,15.14,1.13c10.41,0,17.89-1.68,22.57-2.74    c2.99-0.68,5.47-2.51,7.01-5.16c3.28-5.67,1.23-13.58,0.52-15.87c-0.89-2.9-3.59-4.9-6.63-4.94c-1.29-0.01-2.66-0.1-4.1-0.26    c-0.13-0.02-0.26-0.04-0.39-0.06c-0.26-0.05-0.53-0.09-0.74-0.12c-1.13-0.16-2.05-0.3-3.01-0.5c-0.22-0.05-0.44-0.11-0.66-0.16    c-0.25-0.07-0.5-0.13-0.67-0.17c-0.8-0.2-1.72-0.44-2.57-0.7c-0.49-0.16-0.97-0.33-1.45-0.51c-0.05-0.01-0.1-0.03-0.14-0.05    c-0.82-0.28-1.6-0.58-2.24-0.85c-0.57-0.25-1.13-0.5-1.65-0.75c-0.65-0.3-1.32-0.65-2.14-1.1c-0.54-0.29-1.08-0.59-1.67-0.95    c-0.59-0.35-1.19-0.75-1.91-1.24c-0.54-0.37-1.08-0.73-1.6-1.13c-0.59-0.44-1.23-0.98-1.86-1.52l-0.38-0.31    c-0.36-0.3-0.72-0.6-1.09-0.94c-0.14-0.13-0.29-0.26-0.46-0.39c-34.48-32.52-51.78-61.87-51.42-87.23    c0.16-11.38,4.74-22.01,12.9-29.94c8.16-7.93,18.9-12.23,30.3-12.05c13.11,0.18,25.22,6.29,33.22,16.76    c1.33,1.74,3.38,2.75,5.56,2.75h0.11c2.22-0.03,4.3-1.12,5.59-2.92c1.8-2.53,3.95-5.89,5.56-9.48c1.61,3.59,3.76,6.95,5.56,9.48    c1.29,1.8,3.37,2.89,5.59,2.92h0.11c2.17,0,4.23-1.01,5.56-2.75c8-10.47,20.11-16.58,33.23-16.76    c11.41-0.16,22.13,4.12,30.29,12.05c8.16,7.93,12.74,18.56,12.9,29.94c0.11,8.31-1.71,17.2-5.44,26.41    c-1.4,3.45,0.16,7.35,3.48,8.93c0.12,0.06,0.25,0.13,0.38,0.18c0.02,0.01,0.05,0.02,0.07,0.03c0.16,0.06,0.32,0.11,0.48,0.16    c3.44,1.08,7.19-0.65,8.57-4.05c4.43-10.96,6.6-21.67,6.45-31.85c-0.2-15.12-6.29-29.25-17.13-39.79    c-10.84-10.54-25.14-16.2-40.25-16.01c-14.01,0.2-27.15,5.47-37.28,14.74c-0.4-0.93-0.69-1.74-0.84-2.36    c9.52-11.92,20.14-20.42,31.58-25.27c11.44-4.86,24.07-6.22,37.53-4.06c13.73,2.21,28.5,8.09,43.9,17.47    c2.07,1.25,4.05,2.51,5.9,3.73c0.12,0.08,0.24,0.17,0.33,0.22c0.07,0.05,0.15,0.11,0.22,0.16l0.18,0.11    c0.09,0.07,0.17,0.13,0.27,0.19c0.9,0.61,1.8,1.22,2.69,1.84c0.46,0.31,0.91,0.63,1.36,0.95c0.43,0.3,0.87,0.61,1.29,0.91    c0.5,0.36,0.99,0.72,1.49,1.08c0.36,0.26,0.73,0.53,1.09,0.79c0.51,0.38,1.02,0.76,1.52,1.14c0.33,0.25,0.67,0.49,1,0.74    c0.51,0.39,1,0.77,1.5,1.16c0.32,0.24,0.63,0.48,0.94,0.72c0.5,0.39,0.99,0.78,1.48,1.17c0.3,0.23,0.61,0.47,0.9,0.71    c0.5,0.39,0.98,0.78,1.46,1.17c0.28,0.23,0.57,0.46,0.85,0.69c0.48,0.39,0.94,0.78,1.41,1.17c0.27,0.22,0.55,0.45,0.81,0.67    c0.46,0.39,0.91,0.77,1.36,1.15c0.26,0.22,0.53,0.45,0.79,0.67c0.45,0.38,0.88,0.75,1.31,1.13c0.25,0.22,0.51,0.44,0.75,0.65    c0.43,0.37,0.85,0.74,1.26,1.11c0.24,0.21,0.49,0.43,0.72,0.64c0.41,0.36,0.8,0.71,1.19,1.07c0.24,0.21,0.47,0.42,0.7,0.62    c0.38,0.35,0.75,0.69,1.12,1.03c0.23,0.21,0.46,0.42,0.68,0.62c0.36,0.33,0.71,0.66,1.06,0.99c0.21,0.19,0.43,0.4,0.63,0.59    c0.35,0.32,0.67,0.64,1,0.95c0.2,0.19,0.41,0.38,0.61,0.57c0.31,0.3,0.6,0.58,0.9,0.87c0.18,0.18,0.36,0.35,0.54,0.52    c0.06,0.07,0.12,0.13,0.19,0.19c0.7,0.69,1.39,1.37,2.08,2.05c2.05,2.03,4,4.05,5.84,6.01c0,0.01,0.01,0.01,0.01,0.01    c1.14,1.22,2.02,2.18,2.62,2.85c0.6,0.67,0.91,1.04,0.92,1.05c0.75,0.87,1.7,1.55,2.78,1.97l24.62,9.56l-24.89,83.28L403,336.9    c-2.16-0.87-4.6-0.61-6.52,0.69c-68.57,46.17-102.62,44.03-119.03,40.83c0.84-0.12,1.73-0.27,2.61-0.46    c0.47-0.09,0.94-0.21,1.41-0.33l0.56-0.14c0.99-0.25,2.18-0.55,3.43-0.94c0.69-0.22,1.36-0.46,2.04-0.71    c1.07-0.38,2.11-0.78,3.17-1.22c0.67-0.3,1.35-0.6,2.07-0.94c0.88-0.42,1.8-0.89,2.82-1.45c0.74-0.41,1.48-0.82,2.13-1.22    c0.94-0.56,1.81-1.14,2.63-1.69c0.72-0.5,1.44-0.99,2.14-1.52c0.9-0.67,1.73-1.37,2.44-1.98l0.34-0.28    c0.51-0.43,1.02-0.86,1.49-1.29c0.17-0.14,0.33-0.28,0.55-0.47c7.28-6.86,13.94-13.71,19.79-20.36c2.34-2.65,2.3-6.56,0.06-9.16    c-0.1-0.12-0.21-0.25-0.33-0.37c-0.11-0.13-0.23-0.24-0.35-0.35c-2.91-2.55-7.33-2.27-9.88,0.63c-5.55,6.3-11.88,12.8-18.75,19.28    c-0.16,0.13-0.32,0.26-0.48,0.42c-0.35,0.32-0.71,0.62-1.07,0.92l-0.39,0.33c-0.62,0.52-1.26,1.06-1.85,1.5    c-0.52,0.4-1.06,0.76-1.59,1.12c-0.73,0.5-1.33,0.9-1.99,1.29c-0.52,0.32-1.06,0.62-1.61,0.92c-0.81,0.44-1.48,0.79-2.08,1.07    c-0.57,0.27-1.13,0.52-1.61,0.73c-0.73,0.31-1.51,0.61-2.33,0.89c-0.04,0.02-0.09,0.04-0.14,0.05c-0.48,0.18-0.96,0.35-1.42,0.5    c-0.88,0.27-1.8,0.51-2.52,0.69c-0.25,0.06-0.5,0.12-0.75,0.19c-0.22,0.05-0.44,0.11-0.75,0.18c-0.87,0.18-1.79,0.32-2.86,0.47    c-0.27,0.04-0.54,0.08-0.8,0.13c-0.13,0.02-0.26,0.04-0.41,0.06c-1.42,0.16-2.79,0.25-4.02,0.26c-3.08,0-5.79,2.01-6.69,4.94    c-0.71,2.29-2.76,10.2,0.52,15.87c1.54,2.65,4.02,4.48,7.02,5.16c5.09,1.15,12.34,2.79,22.41,2.79c21.42,0,55.58-7.41,108.8-42.66    l36.91,14.81c1.83,0.73,3.88,0.66,5.65-0.19c1.77-0.86,3.1-2.42,3.67-4.3l28.93-96.82C477.41,261.27,475.6,257.56,472.2,256.24z     M172.29,138.51l-3.13,28.32c-0.16,0.11-0.32,0.22-0.47,0.33c-8.89,6.2-17.59,12.28-25.28,17.64c-1.16,0.82-2.31,1.62-3.42,2.39    l-16.3,11.38c-1.42,1-2.67,1.87-3.72,2.61c-1.04,0.72-1.89,1.32-2.54,1.77l-0.04,0.03c-0.18,0.12-0.34,0.23-0.5,0.34    c-0.14,0.09-0.28,0.19-0.42,0.29c-0.01,0.01-0.03,0.02-0.04,0.03c-0.03,0.02-0.05,0.03-0.08,0.05l18.73-28.2c0-0.01,0-0.01,0-0.02    l27.7-41.72c0.79-1.19,1.93-1.51,2.53-1.6c0.15-0.02,0.33-0.04,0.54-0.04c0.64,0,1.52,0.16,2.35,0.85l2.79,2.33    C171.94,136.08,172.42,137.29,172.29,138.51z M209.99,181.53c-0.3-0.09-0.6-0.17-0.9-0.25c-0.67-0.2-1.35-0.38-2.03-0.56    c-0.37-0.09-0.74-0.18-1.1-0.26c-0.62-0.15-1.25-0.3-1.87-0.43c-0.39-0.08-0.79-0.16-1.18-0.24c-0.61-0.12-1.23-0.23-1.85-0.34    c-0.39-0.06-0.78-0.13-1.18-0.19c-0.64-0.1-1.28-0.19-1.93-0.28c-0.37-0.04-0.74-0.1-1.11-0.14c-0.72-0.08-1.44-0.15-2.16-0.21    c-0.3-0.03-0.6-0.06-0.91-0.09c-2.06-0.16-4.15-0.24-6.25-0.24c-0.06-0.01-0.11-0.01-0.16-0.01c-0.45,0-0.9,0.02-1.35,0.02    c-0.44,0.01-0.88,0.01-1.32,0.02c-0.56,0.02-1.13,0.05-1.69,0.08c-0.39,0.02-0.78,0.03-1.17,0.06c-0.95,0.06-1.9,0.14-2.85,0.23    c-0.3,0.02-0.6,0.06-0.9,0.09c-0.63,0.07-1.27,0.14-1.91,0.22c0.96-0.68,1.93-1.35,2.9-2.02c0.23-0.17,0.47-0.33,0.7-0.5    l54.16-37.83c1.75-1.22,4.11-1.01,5.63,0.5c1.53,1.54,1.73,3.93,0.45,5.69l-27.12,37.6C211.93,182.12,210.96,181.82,209.99,181.53    z M333.23,178.72c-0.25-0.03-0.49-0.04-0.74-0.07c-0.66-0.05-1.32-0.11-1.98-0.15c-0.33-0.03-0.67-0.04-1-0.06    c-0.58-0.04-1.17-0.06-1.75-0.08c-0.33-0.02-0.67-0.03-1-0.04c-0.63-0.01-1.26-0.02-1.89-0.02c-0.27,0-0.53-0.01-0.79,0    c-0.88,0-1.75,0.02-2.62,0.05c-0.21,0.01-0.42,0.03-0.63,0.04c-0.67,0.03-1.35,0.06-2.01,0.11c-0.31,0.02-0.62,0.05-0.92,0.07    c-0.59,0.05-1.17,0.1-1.75,0.16c-0.31,0.04-0.62,0.07-0.92,0.1c-0.63,0.08-1.25,0.16-1.87,0.24c-0.24,0.04-0.49,0.07-0.73,0.1    c-0.86,0.13-1.72,0.27-2.58,0.43c-0.08,0.02-0.17,0.04-0.26,0.05c-0.76,0.14-1.53,0.3-2.29,0.47c-0.26,0.05-0.52,0.11-0.77,0.17    c-0.6,0.14-1.19,0.28-1.78,0.43c-0.28,0.07-0.57,0.15-0.85,0.22c-0.59,0.16-1.18,0.33-1.77,0.5c-0.25,0.07-0.5,0.14-0.75,0.22    c-0.82,0.24-1.63,0.5-2.44,0.78c-0.01,0-0.02,0-0.03,0.01l-27.12-37.6c-1.28-1.76-1.08-4.15,0.45-5.69    c0.86-0.85,1.99-1.29,3.12-1.29c0.87,0,1.75,0.26,2.51,0.79l54.16,37.83c1.2,0.84,2.4,1.68,3.6,2.52    C334.96,178.9,334.09,178.8,333.23,178.72z M395.57,203.64c-0.01-0.01-0.03-0.02-0.04-0.03c-0.14-0.1-0.28-0.2-0.42-0.29    c-0.15-0.11-0.32-0.22-0.5-0.34l-0.05-0.03c-0.64-0.46-1.49-1.05-2.53-1.77c-0.27-0.2-0.56-0.4-0.87-0.61    c-0.85-0.6-1.81-1.27-2.87-2.01l-16.28-11.37c-1.11-0.77-2.26-1.57-3.42-2.39c-7.82-5.46-16.69-11.65-25.75-17.97l-3.13-28.32    c-0.13-1.22,0.35-2.43,1.3-3.22l2.79-2.33c1.1-0.91,2.28-0.9,2.89-0.81c0.6,0.09,1.74,0.41,2.53,1.6l27.7,41.73c0,0,0,0,0,0.01    l18.73,28.2C395.62,203.67,395.6,203.66,395.57,203.64z" />

		</g>

	</g>

</svg>