<?xml version="1.0" encoding="UTF-8"?>
<svg id="numaa-wordmark" xmlns="http://www.w3.org/2000/svg" viewBox="0 0 165.27 26.33" fill="#FBEBE3">
  <path
    d="M27.01,18.5c0,2.56,0,3.19.75,3.76.8.37,1.24.73,1.24,1.62,0,1.62-1.24,1.67-2.34,1.67h-7.41c-1.09,0-2.34-.05-2.34-1.67,0-.89.45-1.25,1.24-1.62.75-.58.75-1.2.75-3.76v-7.99c0-2.87-.1-6.11-3.68-6.11-1.64,0-2.98.68-3.83,2.14-.75,1.25-.75,2.87-.75,4.28v7.68c0,2.56,0,3.19.75,3.76.8.37,1.24.73,1.24,1.62,0,1.62-1.24,1.67-2.34,1.67H2.88c-1.09,0-2.34-.05-2.34-1.67,0-.89.45-1.25,1.24-1.62.75-.58.75-1.2.75-3.76v-9.56c0-1.83.2-2.77-1.49-3.66-.5-.21-1.04-.57-1.04-1.41C0,1.99,6.12,0,7.66,0c1.69,0,2.04,2.4,2.24,3.76,1.99-2.56,4.68-3.76,7.91-3.76,2.54,0,5.27.78,7.06,2.77,1.79,2.04,2.14,4.96,2.14,7.58v8.15Z" />
  <path
    d="M33.38,8.05c0-1.83,0-2.67-1.09-3.55-.45-.37-.85-.68-.85-1.36,0-.99.6-1.36,2.69-2.04,2.94-.94,3.98-.99,5.22-.99,1.44,0,2.14.89,2.14,4.54v11.6c0,2.61.1,5.75,3.38,5.75,1.29,0,2.83-.78,3.63-1.83.9-1.15.9-2.72.9-4.08v-8.04c0-1.83,0-2.67-1.09-3.55-.45-.37-.84-.68-.84-1.36,0-.99.6-1.36,2.69-2.04,2.93-.94,3.98-.99,5.22-.99,1.44,0,2.14.89,2.14,4.54v13.74c0,2.67.2,3.29,1.34,3.87.7.37,1.24.73,1.24,1.62,0,1.62-1.54,1.67-2.69,1.67h-4.83c-2.59,0-2.59-.89-2.59-3.24-2.24,2.72-5.07,4.02-8.46,4.02s-5.57-1.25-7.21-3.92c-.45-.73-.95-3.03-.95-5.7v-8.67Z" />
  <path
    d="M64.97,8.93c0-1.83.2-2.77-1.49-3.66-.5-.21-1.04-.57-1.04-1.41,0-1.88,6.12-3.87,7.66-3.87,1.69,0,2.04,2.4,2.24,3.76,1.99-2.4,4.87-3.76,8.01-3.76s5.62,1.41,7.11,4.23c1.94-3.03,5.12-4.23,8.51-4.23,2.19,0,4.63.78,6.27,2.4,1.89,1.88,2.19,4.54,2.19,7.16v8.93c0,2.56,0,3.19.75,3.76.8.37,1.24.73,1.24,1.62,0,1.62-1.24,1.67-2.34,1.67h-7.41c-1.09,0-2.34-.05-2.34-1.67,0-.89.45-1.25,1.24-1.62.75-.58.75-1.2.75-3.76v-7.68c0-2.51.05-6.11-3.23-6.11-1.44,0-2.59.63-3.43,1.78-.9,1.25-.9,3.08-.9,4.6v7.42c0,2.56,0,3.19.75,3.76.8.37,1.24.73,1.24,1.62,0,1.62-1.24,1.67-2.34,1.67h-7.41c-1.09,0-2.34-.05-2.34-1.67,0-.89.45-1.25,1.24-1.62.75-.58.75-1.2.75-3.76v-7.68c0-2.51.05-6.11-3.23-6.11-1.44,0-2.59.63-3.43,1.78-.89,1.25-.89,3.08-.89,4.6v7.42c0,2.56,0,3.19.75,3.76.8.37,1.24.73,1.24,1.62,0,1.62-1.24,1.67-2.34,1.67h-7.41c-1.09,0-2.34-.05-2.34-1.67,0-.89.45-1.25,1.24-1.62.75-.58.75-1.2.75-3.76v-9.56Z" />
  <path
    d="M133.43,18.39c0,2.46.05,3.19.95,3.66,1.09.57,1.64.94,1.64,1.83,0,1.67-1.49,1.67-2.69,1.67h-5.17c-2.49,0-2.49-.89-2.49-3.24-1.69,2.93-4.68,4.02-7.71,4.02-4.68,0-8.95-2.72-8.95-8.1,0-7.42,8.95-9.25,14.43-9.25h1.69c0-3.13-1.44-5.49-4.63-5.49s-3.48,3.34-6.62,3.34c-1.44,0-3.08-.68-3.08-2.51,0-3.66,7.86-4.34,10.3-4.34,8.66,0,12.34,4.02,12.34,10.14v8.25ZM124.48,12.28c-3.53,0-7.11,1.83-7.11,6.01,0,1.98,1.09,3.76,3.13,3.76,1.64,0,2.93-1.1,3.83-2.51,1.04-1.78,1.04-1.83,1.04-7.26h-.9Z" />
  <path
    d="M162.68,18.39c0,2.46.05,3.19.95,3.66,1.09.57,1.64.94,1.64,1.83,0,1.67-1.49,1.67-2.69,1.67h-5.17c-2.49,0-2.49-.89-2.49-3.24-1.69,2.93-4.68,4.02-7.71,4.02-4.68,0-8.95-2.72-8.95-8.1,0-7.42,8.95-9.25,14.43-9.25h1.69c0-3.13-1.44-5.49-4.63-5.49s-3.48,3.34-6.62,3.34c-1.44,0-3.08-.68-3.08-2.51,0-3.66,7.86-4.34,10.3-4.34,8.66,0,12.34,4.02,12.34,10.14v8.25ZM153.73,12.28c-3.53,0-7.11,1.83-7.11,6.01,0,1.98,1.09,3.76,3.13,3.76,1.64,0,2.93-1.1,3.83-2.51,1.04-1.78,1.04-1.83,1.04-7.26h-.9Z" />
</svg>